<?xml version="1.0" encoding="utf-8"?>
<!-- Generator: Adobe Illustrator 25.2.3, SVG Export Plug-In . SVG Version: 6.00 Build 0)  -->
<svg version="1.1" id="Layer_1" xmlns="http://www.w3.org/2000/svg" xmlns:xlink="http://www.w3.org/1999/xlink" x="0px" y="0px"
	 viewBox="0 0 552.6 119.8" style="enable-background:new 0 0 552.6 119.8;" xml:space="preserve">
<style type="text/css">
	.st0{display:none;fill:#FFFFFF;}
	.st1{fill:#E4142C;}
	.st2{fill:#7D868C;}
</style>
<rect x="-43" y="-34.7" class="st0" width="634" height="187.3"/>
<g>
	<polygon class="st1" points="72.9,1.6 11,63.5 19.2,71.7 81.1,9.8 	"/>
	<polygon class="st1" points="105.6,34.4 43.7,96.2 35.6,88.1 97.5,26.2 	"/>
	<polygon class="st2" points="85.6,29.8 23.7,91.7 15.6,83.5 77.5,21.6 	"/>
	<rect x="31.4" y="75.4" transform="matrix(0.7072 -0.707 0.707 0.7072 -35.4066 76.896)" class="st2" width="87.5" height="11.6"/>
	<path class="st1" d="M184.4,55.9c3.2-1.6,5.5-3.8,7.1-6.4c1.5-2.6,2.3-5.7,2.3-9.1c0-2.8-0.6-5.3-1.7-7.5c-1.2-2.2-2.8-4.1-5.1-5.9
		c-2.1-1.6-4.5-2.9-7.2-3.7c-2.7-0.9-5.6-1.3-8.9-1.3h-35.9c-0.7,0-1.4,0.3-2,0.8c-0.6,0.6-0.8,1.2-0.8,2v68.3c0,0.7,0.3,1.4,0.8,2
		c0.6,0.6,1.2,0.8,2,0.8h36.4c7.4,0,13.3-1.9,17.9-5.6c4.8-4,7.3-9.1,7.3-15.5c0-5.7-1.6-10.4-4.7-14
		C190.1,58.9,187.7,57.2,184.4,55.9 M155.6,38.8h5.8c2.5,0,4.4,0.6,5.8,1.8c1.4,1.2,2.1,2.6,2.1,4.2c0,1.4-0.7,2.8-2.2,4
		c-1.5,1.2-3.4,1.8-5.8,1.8h-5.8V38.8z M168.7,77.1c-1.7,1.3-3.9,1.9-6.6,1.9h-6.5V65h6.8c2.6,0,4.8,0.6,6.4,1.9
		c1.6,1.3,2.4,3,2.4,5.2C171.2,74.2,170.4,75.9,168.7,77.1"/>
	<path class="st1" d="M344.7,74h-34.5V24.8c0-0.8-0.3-1.4-0.9-2c-0.6-0.6-1.3-0.8-2-0.8h-16.1c-0.8,0-1.5,0.3-2,0.8
		c-0.5,0.6-0.8,1.2-0.8,2v68.3c0,0.7,0.3,1.4,0.8,2c0.6,0.6,1.3,0.8,2.1,0.8h53.6c0.8,0,1.4-0.3,2-0.8c0.6-0.6,0.9-1.2,0.9-2V76.8
		c0-0.8-0.3-1.5-0.9-2C346.2,74.3,345.5,74,344.7,74"/>
	<path class="st1" d="M415.1,22h-53.6c-0.8,0-1.5,0.3-2.1,0.8c-0.6,0.6-0.8,1.2-0.8,2v68.3c0,0.7,0.3,1.4,0.8,2
		c0.6,0.6,1.3,0.8,2.1,0.8h16.1c0.8,0,1.5-0.3,2-0.8c0.5-0.6,0.8-1.2,0.8-2V74.7H406c0.7,0,1.4-0.3,2-0.8c0.6-0.6,0.9-1.2,0.9-2
		l0-16.3c0-0.8-0.3-1.5-0.9-2c-0.6-0.5-1.2-0.8-2-0.8h-25.6v-9h34.7c0.8,0,1.5-0.3,2-0.8c0.5-0.6,0.8-1.3,0.8-2.1V24.8
		c0-0.8-0.3-1.4-0.8-2C416.6,22.3,415.9,22,415.1,22"/>
	<path class="st1" d="M448.8,22h-17c-0.7,0-1.3,0.3-1.7,0.8c-0.5,0.6-0.7,1.2-0.7,2v68.3c0,0.7,0.2,1.4,0.7,2
		c0.5,0.6,1.1,0.8,1.7,0.8h17c0.7,0,1.3-0.3,1.7-0.8c0.5-0.6,0.7-1.2,0.7-2V24.8c0-0.8-0.2-1.4-0.7-2C450.1,22.3,449.5,22,448.8,22"
		/>
	<path class="st1" d="M536.1,22.8c-0.6-0.6-1.3-0.8-2.1-0.8h-16c-0.8,0-1.5,0.3-2.1,0.8c-0.6,0.6-0.8,1.2-0.8,2v35.9l-28.6-37.5
		c-0.1-0.3-0.4-0.6-1-0.8c-0.5-0.3-1-0.4-1.4-0.4h-16.8c-0.7,0-1.4,0.3-2,0.8c-0.6,0.6-0.9,1.2-0.9,2v68.3c0,0.8,0.3,1.4,0.9,2
		c0.6,0.6,1.2,0.8,2,0.8h16.1c0.8,0,1.5-0.3,2.1-0.8c0.6-0.6,0.8-1.2,0.8-2V58.9l26.6,35.8c0.2,0.3,0.6,0.6,1.1,0.8
		c0.5,0.2,0.9,0.3,1.2,0.3H534c0.8,0,1.5-0.3,2.1-0.8c0.6-0.6,0.8-1.2,0.8-2V24.8C537,24,536.7,23.4,536.1,22.8"/>
	<path class="st1" d="M251.2,23.5c-0.2-0.4-0.6-0.7-1.1-1c-0.6-0.3-1-0.5-1.4-0.5h-8.4h-0.1h-0.1H240h-0.1h-8.4
		c-0.4,0-0.9,0.2-1.4,0.5c-0.6,0.3-0.9,0.7-1.1,1l-28,68.2c-0.6,1.1-0.7,2-0.1,2.9c0.6,0.9,1.5,1.3,2.7,1.3h17.2
		c0.5,0,1-0.2,1.5-0.5c0.5-0.3,0.9-0.7,1.1-1.1l4-9.2h12.4h0.1h0.1h0.1h0.1h12.4l4,9.2c0.2,0.4,0.6,0.8,1.1,1.1
		c0.5,0.3,1,0.5,1.5,0.5h17.2c1.3,0,2.2-0.4,2.7-1.3c0.6-0.9,0.6-1.9-0.1-2.9L251.2,23.5z M233.6,68.5l6.5-18.1l6.5,18.1H233.6z"/>
</g>
</svg>
